<svg width="182" height="21" viewBox="0 0 182 21" fill="none" xmlns="http://www.w3.org/2000/svg">
<path d="M10.9999 13.6163C10.3308 13.6188 9.67055 13.4859 9.07329 13.2287C8.47606 12.9715 7.95878 12.5973 7.56402 12.1367L4.81244 13.484C4.91715 13.5869 5.0411 13.6743 5.17932 13.7426L10.0757 16.1484C10.3619 16.2731 10.6786 16.338 10.9999 16.338C11.3213 16.338 11.638 16.2731 11.9242 16.1484L16.8206 13.7426C16.9588 13.6743 17.0827 13.5869 17.1874 13.484L14.4429 12.1127C14.0505 12.5785 13.5335 12.9579 12.9347 13.2194C12.336 13.4809 11.6727 13.617 10.9999 13.6163Z" fill="#414042"/>
<path d="M6.69182 9.98563C6.69433 9.13028 7.10003 8.30563 7.83135 7.66932C8.56268 7.03301 9.56839 6.62966 10.6562 6.53636V3.94366C10.4912 3.97047 10.3324 4.01701 10.1855 4.08163L5.08108 6.38115C4.80364 6.52622 4.57295 6.71952 4.40709 6.94594C4.2412 7.17233 4.14464 7.42566 4.12494 7.68611V12.2851C4.12721 12.4178 4.15443 12.5496 4.20582 12.6761L7.07431 11.3826C6.82348 10.9429 6.6932 10.467 6.69182 9.98563Z" fill="#414042"/>
<path d="M16.9691 6.37954L12.1334 4.08154C11.9942 4.01695 11.8438 3.97045 11.6874 3.94366V6.5289C12.3444 6.59028 12.9747 6.77794 13.5276 7.07687C14.0805 7.37577 14.5405 7.77754 14.8706 8.24983C15.2008 8.72211 15.3918 9.25171 15.4283 9.796C15.4648 10.3403 15.3458 10.884 15.0808 11.3834L17.7983 12.6761C17.847 12.5496 17.8728 12.418 17.8749 12.2854V7.6894C17.8573 7.42814 17.7663 7.17383 17.6092 6.9465C17.4519 6.71918 17.2328 6.52509 16.9691 6.37954Z" fill="#414042"/>
<path d="M20.4915 4.07637L12.5085 0.293042C12.0404 0.100338 11.5238 0 11 0C10.4762 0 9.95967 0.100338 9.49149 0.293042L1.50851 4.07637C1.07033 4.31062 0.705513 4.62614 0.443438 4.99744C0.181397 5.36873 0.0294937 5.78538 0 6.21372V13.7803C0.0289438 14.2096 0.180572 14.6273 0.442613 14.9996C0.704654 15.3719 1.06978 15.6885 1.50851 15.9236L9.49149 19.707C9.95967 19.8997 10.4762 20 11 20C11.5238 20 12.0404 19.8997 12.5085 19.707L20.4915 15.9236C20.9302 15.6885 21.2953 15.3719 21.5574 14.9996C21.8194 14.6273 21.9711 14.2096 22 13.7803V6.21372C21.9705 5.78538 21.8186 5.36873 21.5566 4.99744C21.2945 4.62614 20.9297 4.31062 20.4915 4.07637ZM19.4665 12.91C19.4431 13.2398 19.3258 13.5604 19.1239 13.8463C18.9222 14.1321 18.6415 14.3752 18.3044 14.556L12.1548 17.4689C11.7956 17.6177 11.3988 17.6953 10.9964 17.6953C10.594 17.6953 10.1971 17.6177 9.83795 17.4689L3.69555 14.556C3.35851 14.3752 3.07783 14.1321 2.87605 13.8463C2.67424 13.5604 2.55691 13.2398 2.53347 12.91V7.09C2.55691 6.76023 2.67424 6.43958 2.87605 6.15375C3.07783 5.86789 3.35851 5.62482 3.69555 5.44403L9.8307 2.53107C10.1899 2.38225 10.5867 2.3047 10.9892 2.3047C11.3916 2.3047 11.7884 2.38225 12.1476 2.53107L18.2972 5.44403C18.6356 5.62417 18.9177 5.86696 19.1208 6.15285C19.3239 6.4387 19.4423 6.75972 19.4665 7.09V12.91Z" fill="#414042"/>
<path d="M7.90619 10C7.90619 10.4736 8.08762 10.9365 8.42755 11.3302C8.76749 11.724 9.2507 12.0309 9.81603 12.2121C10.3813 12.3933 11.0034 12.4407 11.6035 12.3484C12.2036 12.256 12.7549 12.0279 13.1875 11.6931C13.6202 11.3582 13.9149 10.9316 14.0343 10.4671C14.1536 10.0027 14.0923 9.52124 13.8582 9.08372C13.624 8.6462 13.2275 8.27226 12.7188 8.00916C12.21 7.74606 11.6118 7.60564 10.9999 7.60564C10.1794 7.60564 9.39253 7.85789 8.81235 8.30693C8.23213 8.75598 7.90619 9.36499 7.90619 10Z" fill="#414042"/>
<path d="M27.0213 15L28.8324 4.09091H36.5028L36.098 6.47727H31.3892L31.0909 8.35227H35.331L34.9261 10.7386H30.6861L29.983 15H27.0213ZM41.213 11.4205L41.98 6.81818H44.9204L43.5567 15H40.7655L41.0212 13.4446H40.936C40.6839 13.9666 40.3074 14.375 39.8067 14.6697C39.3096 14.9609 38.7556 15.1065 38.1448 15.1065C37.5731 15.1065 37.0954 14.9751 36.7119 14.7124C36.3284 14.4496 36.0567 14.0874 35.8969 13.6257C35.7371 13.1641 35.7052 12.6349 35.801 12.0384L36.6746 6.81818H39.615L38.8479 11.4205C38.7876 11.8253 38.839 12.1431 39.0024 12.3739C39.1693 12.6048 39.4374 12.7202 39.8067 12.7202C40.0518 12.7202 40.2719 12.6687 40.4672 12.5657C40.6661 12.4592 40.8295 12.31 40.9573 12.1183C41.0887 11.9229 41.1739 11.6903 41.213 11.4205ZM51.2951 6.81818L50.9329 8.94886H45.5423L45.9045 6.81818H51.2951ZM47.2681 4.85795H50.2085L48.962 12.3686C48.9442 12.4822 48.9478 12.5781 48.9727 12.6562C48.9975 12.7308 49.0472 12.7876 49.1218 12.8267C49.1999 12.8622 49.3029 12.88 49.4308 12.88C49.516 12.88 49.6207 12.8693 49.745 12.848C49.8693 12.8232 49.9634 12.8054 50.0273 12.7947L50.1126 14.8615C49.9634 14.9041 49.7628 14.9521 49.5107 15.0053C49.2621 15.0621 48.9727 15.0994 48.6424 15.1172C47.9535 15.1491 47.3924 15.0763 46.9592 14.8988C46.5295 14.7212 46.2312 14.4442 46.0643 14.0678C45.9009 13.6879 45.8725 13.2138 45.979 12.6456L47.2681 4.85795ZM57.0333 11.4205L57.8003 6.81818H60.7407L59.377 15H56.5858L56.8415 13.4446H56.7563C56.5042 13.9666 56.1278 14.375 55.627 14.6697C55.1299 14.9609 54.5759 15.1065 53.9651 15.1065C53.3934 15.1065 52.9157 14.9751 52.5322 14.7124C52.1487 14.4496 51.877 14.0874 51.7172 13.6257C51.5574 13.1641 51.5255 12.6349 51.6214 12.0384L52.4949 6.81818H55.4353L54.6682 11.4205C54.6079 11.8253 54.6594 12.1431 54.8227 12.3739C54.9896 12.6048 55.2577 12.7202 55.627 12.7202C55.8721 12.7202 56.0922 12.6687 56.2876 12.5657C56.4864 12.4592 56.6498 12.31 56.7776 12.1183C56.909 11.9229 56.9942 11.6903 57.0333 11.4205ZM60.8725 15L62.2362 6.81818H65.0913L64.8356 8.37358H64.9208C65.1658 7.7983 65.473 7.37749 65.8423 7.11115C66.2116 6.84482 66.6147 6.71165 67.0515 6.71165C67.1793 6.71165 67.3018 6.7223 67.419 6.74361C67.5398 6.76136 67.6587 6.78622 67.7759 6.81818L67.3498 9.33239C67.2113 9.27912 67.0391 9.24183 66.8331 9.22053C66.6271 9.19567 66.4442 9.18324 66.2844 9.18324C66.0004 9.18324 65.734 9.24893 65.4854 9.38033C65.2404 9.50817 65.0309 9.68928 64.8569 9.92365C64.6864 10.1545 64.5728 10.4261 64.516 10.7386L63.8129 15H60.8725ZM70.8068 15.1491C69.9332 15.1491 69.2088 14.9822 68.6335 14.6484C68.0582 14.3111 67.6534 13.8281 67.419 13.1996C67.1847 12.5675 67.142 11.8111 67.2912 10.9304C67.4332 10.0852 67.7262 9.34659 68.1701 8.71449C68.6175 8.08239 69.1804 7.59055 69.8587 7.23899C70.5405 6.88743 71.304 6.71165 72.1491 6.71165C72.767 6.71165 73.3086 6.80753 73.7738 6.99929C74.2425 7.19105 74.6243 7.46982 74.919 7.83558C75.2138 8.20135 75.4126 8.64347 75.5156 9.16193C75.6222 9.67685 75.6222 10.2592 75.5156 10.9091L75.4091 11.5909H68.1009L68.3565 9.97159H72.9588C72.9943 9.73722 72.9712 9.53125 72.8896 9.35369C72.8114 9.17259 72.6854 9.03232 72.5114 8.93288C72.3409 8.8299 72.1349 8.77841 71.8935 8.77841C71.652 8.77841 71.4247 8.8299 71.2116 8.93288C71.0021 9.03587 70.8228 9.17969 70.6737 9.36435C70.5281 9.54901 70.4304 9.76562 70.3807 10.0142L70.0611 11.7188C70.0185 11.9815 70.0344 12.2159 70.109 12.4219C70.1836 12.6278 70.3132 12.7894 70.4979 12.9066C70.6825 13.0238 70.9205 13.0824 71.2116 13.0824C71.4105 13.0824 71.5987 13.0558 71.7763 13.0025C71.9574 12.9457 72.1172 12.864 72.2557 12.7575C72.3977 12.6474 72.5114 12.5142 72.5966 12.358H75.2812C75.0895 12.9261 74.7859 13.4197 74.3704 13.8388C73.9585 14.2543 73.4506 14.5774 72.8469 14.8082C72.2468 15.0355 71.5668 15.1491 70.8068 15.1491ZM82.9424 15.1491C82.0546 15.1491 81.3231 14.9734 80.7478 14.6218C80.176 14.2667 79.7748 13.7731 79.5439 13.141C79.3131 12.5053 79.267 11.7685 79.4055 10.9304C79.5439 10.0923 79.8334 9.35724 80.2737 8.72514C80.714 8.08949 81.2805 7.59588 81.9729 7.24432C82.6654 6.8892 83.4573 6.71165 84.3486 6.71165C85.2329 6.71165 85.9608 6.8892 86.5326 7.24432C87.1079 7.59588 87.5109 8.08949 87.7417 8.72514C87.9761 9.35724 88.0241 10.0923 87.8856 10.9304C87.7471 11.7685 87.4559 12.5053 87.012 13.141C86.5681 13.7731 85.9999 14.2667 85.3074 14.6218C84.6185 14.9734 83.8302 15.1491 82.9424 15.1491ZM83.3046 12.9759C83.5603 12.9759 83.7929 12.8924 84.0024 12.7255C84.2155 12.5586 84.3966 12.3207 84.5457 12.0117C84.6984 11.7028 84.8103 11.3352 84.8813 10.9091C84.9523 10.4794 84.963 10.1119 84.9133 9.80646C84.8635 9.49751 84.7606 9.25959 84.6043 9.09268C84.4481 8.92578 84.2421 8.84233 83.9864 8.84233C83.7307 8.84233 83.4964 8.92578 83.2833 9.09268C83.0702 9.25959 82.8891 9.49751 82.74 9.80646C82.5908 10.1119 82.4807 10.4794 82.4097 10.9091C82.3387 11.3352 82.3263 11.7028 82.3724 12.0117C82.4221 12.3207 82.5251 12.5586 82.6814 12.7255C82.8412 12.8924 83.0489 12.9759 83.3046 12.9759ZM94.6718 6.81818L94.3096 8.94886H88.8337L89.1959 6.81818H94.6718ZM88.8657 15L90.2719 6.58381C90.382 5.90909 90.5933 5.34979 90.9058 4.90589C91.2219 4.462 91.6178 4.12997 92.0937 3.9098C92.5731 3.68963 93.1093 3.57954 93.7023 3.57954C94.0787 3.57954 94.4392 3.60795 94.7836 3.66477C95.1281 3.72159 95.3785 3.77131 95.5347 3.81392L94.7677 5.9233C94.6647 5.89134 94.5457 5.86648 94.4108 5.84872C94.2758 5.82741 94.1533 5.81676 94.0432 5.81676C93.7698 5.81676 93.5745 5.87535 93.4573 5.99254C93.3437 6.10973 93.2691 6.2642 93.2336 6.45597L91.806 15H88.8657ZM99.1888 4.09091H102.875L104.388 10.2699H104.516L108.074 4.09091H111.76L109.949 15H107.051L108.095 8.69318H108.01L104.558 14.9148H102.811L101.426 8.65057H101.341L100.275 15H97.3778L99.1888 4.09091ZM117.297 11.4205L118.064 6.81818H121.004L119.641 15H116.85L117.105 13.4446H117.02C116.768 13.9666 116.391 14.375 115.891 14.6697C115.394 14.9609 114.84 15.1065 114.229 15.1065C113.657 15.1065 113.179 14.9751 112.796 14.7124C112.412 14.4496 112.141 14.0874 111.981 13.6257C111.821 13.1641 111.789 12.6349 111.885 12.0384L112.759 6.81818H115.699L114.932 11.4205C114.872 11.8253 114.923 12.1431 115.086 12.3739C115.253 12.6048 115.521 12.7202 115.891 12.7202C116.136 12.7202 116.356 12.6687 116.551 12.5657C116.75 12.4592 116.913 12.31 117.041 12.1183C117.173 11.9229 117.258 11.6903 117.297 11.4205ZM125.888 4.09091L124.077 15H121.136L122.947 4.09091H125.888ZM131.818 6.81818L131.455 8.94886H126.065L126.427 6.81818H131.818ZM127.791 4.85795H130.731L129.484 12.3686C129.467 12.4822 129.47 12.5781 129.495 12.6562C129.52 12.7308 129.57 12.7876 129.644 12.8267C129.722 12.8622 129.825 12.88 129.953 12.88C130.038 12.88 130.143 12.8693 130.267 12.848C130.392 12.8232 130.486 12.8054 130.55 12.7947L130.635 14.8615C130.486 14.9041 130.285 14.9521 130.033 15.0053C129.785 15.0621 129.495 15.0994 129.165 15.1172C128.476 15.1491 127.915 15.0763 127.482 14.8988C127.052 14.7212 126.754 14.4442 126.587 14.0678C126.423 13.6879 126.395 13.2138 126.502 12.6456L127.791 4.85795ZM131.654 15L133.017 6.81818H135.958L134.594 15H131.654ZM134.615 5.96591C134.218 5.96591 133.896 5.83452 133.651 5.57173C133.406 5.3054 133.316 4.98935 133.38 4.62358C133.444 4.25071 133.639 3.93466 133.966 3.67543C134.292 3.41264 134.654 3.28125 135.052 3.28125C135.453 3.28125 135.773 3.41264 136.011 3.67543C136.249 3.93466 136.338 4.25071 136.277 4.62358C136.221 4.98935 136.029 5.3054 135.702 5.57173C135.379 5.83452 135.017 5.96591 134.615 5.96591ZM136.114 15L137.477 6.81818H140.268L140.013 8.37358H140.098C140.35 7.86222 140.707 7.45739 141.169 7.15909C141.63 6.8608 142.147 6.71165 142.719 6.71165C143.29 6.71165 143.759 6.86435 144.125 7.16974C144.491 7.47159 144.675 7.87287 144.679 8.37358H144.764C144.984 7.87287 145.345 7.47159 145.845 7.16974C146.346 6.86435 146.902 6.71165 147.513 6.71165C148.29 6.71165 148.882 6.96378 149.286 7.46804C149.695 7.9723 149.828 8.64347 149.686 9.48153L148.77 15H145.829L146.639 10.2273C146.689 9.86861 146.639 9.58807 146.49 9.38565C146.341 9.17969 146.114 9.0767 145.808 9.0767C145.506 9.0767 145.251 9.17969 145.041 9.38565C144.835 9.58807 144.707 9.86861 144.658 10.2273L143.848 15H141.035L141.845 10.2273C141.895 9.86861 141.845 9.58807 141.696 9.38565C141.547 9.17969 141.32 9.0767 141.014 9.0767C140.815 9.0767 140.634 9.12287 140.471 9.2152C140.311 9.30753 140.178 9.4407 140.071 9.6147C139.968 9.78516 139.899 9.98935 139.864 10.2273L139.054 15H136.114ZM154.098 15.1491C153.224 15.1491 152.5 14.9822 151.925 14.6484C151.349 14.3111 150.944 13.8281 150.71 13.1996C150.476 12.5675 150.433 11.8111 150.582 10.9304C150.724 10.0852 151.017 9.34659 151.461 8.71449C151.909 8.08239 152.471 7.59055 153.15 7.23899C153.831 6.88743 154.595 6.71165 155.44 6.71165C156.058 6.71165 156.6 6.80753 157.065 6.99929C157.534 7.19105 157.915 7.46982 158.21 7.83558C158.505 8.20135 158.704 8.64347 158.807 9.16193C158.913 9.67685 158.913 10.2592 158.807 10.9091L158.7 11.5909H151.392L151.648 9.97159H156.25C156.285 9.73722 156.262 9.53125 156.181 9.35369C156.102 9.17259 155.976 9.03232 155.802 8.93288C155.632 8.8299 155.426 8.77841 155.184 8.77841C154.943 8.77841 154.716 8.8299 154.503 8.93288C154.293 9.03587 154.114 9.17969 153.965 9.36435C153.819 9.54901 153.721 9.76562 153.672 10.0142L153.352 11.7188C153.309 11.9815 153.325 12.2159 153.4 12.4219C153.475 12.6278 153.604 12.7894 153.789 12.9066C153.974 13.0238 154.211 13.0824 154.503 13.0824C154.702 13.0824 154.89 13.0558 155.067 13.0025C155.248 12.9457 155.408 12.864 155.547 12.7575C155.689 12.6474 155.802 12.5142 155.888 12.358H158.572C158.381 12.9261 158.077 13.4197 157.661 13.8388C157.249 14.2543 156.742 14.5774 156.138 14.8082C155.538 15.0355 154.858 15.1491 154.098 15.1491ZM162.276 15.1065C161.693 15.1065 161.182 14.9538 160.742 14.6484C160.305 14.343 159.991 13.8796 159.799 13.2582C159.611 12.6367 159.595 11.8537 159.751 10.9091C159.914 9.92187 160.2 9.11932 160.608 8.50142C161.02 7.88352 161.493 7.43075 162.025 7.14311C162.562 6.85547 163.1 6.71165 163.639 6.71165C164.044 6.71165 164.387 6.78267 164.667 6.92472C164.951 7.06321 165.177 7.24964 165.344 7.48402C165.511 7.71484 165.624 7.96875 165.685 8.24574H165.727L166.42 4.09091H169.36L167.549 15H164.63L164.854 13.6577H164.79C164.63 13.9347 164.426 14.1832 164.177 14.4034C163.932 14.62 163.65 14.7923 163.33 14.9201C163.011 15.0444 162.659 15.1065 162.276 15.1065ZM163.735 12.848C164.005 12.848 164.25 12.7699 164.47 12.6136C164.69 12.4538 164.877 12.2301 165.03 11.9425C165.182 11.6513 165.291 11.3068 165.354 10.9091C165.422 10.5043 165.427 10.158 165.37 9.87038C165.314 9.57919 165.2 9.35724 165.03 9.20455C164.863 9.0483 164.644 8.97017 164.374 8.97017C164.104 8.97017 163.861 9.0483 163.645 9.20455C163.428 9.35724 163.245 9.57919 163.096 9.87038C162.95 10.158 162.844 10.5043 162.776 10.9091C162.709 11.3139 162.7 11.6619 162.75 11.9531C162.803 12.2408 162.913 12.4627 163.08 12.619C163.247 12.7717 163.465 12.848 163.735 12.848ZM168.993 15L170.356 6.81818H173.297L171.933 15H168.993ZM171.954 5.96591C171.557 5.96591 171.235 5.83452 170.99 5.57173C170.745 5.3054 170.655 4.98935 170.718 4.62358C170.782 4.25071 170.978 3.93466 171.304 3.67543C171.631 3.41264 171.993 3.28125 172.391 3.28125C172.792 3.28125 173.112 3.41264 173.35 3.67543C173.588 3.93466 173.677 4.25071 173.616 4.62358C173.559 4.98935 173.368 5.3054 173.041 5.57173C172.718 5.83452 172.356 5.96591 171.954 5.96591ZM175.69 15.1278C175.171 15.1278 174.725 15.0426 174.353 14.8722C173.983 14.6982 173.713 14.4354 173.543 14.0838C173.376 13.7287 173.339 13.2812 173.431 12.7415C173.506 12.294 173.646 11.9123 173.852 11.5962C174.058 11.2802 174.314 11.021 174.619 10.8185C174.924 10.6161 175.267 10.4616 175.647 10.3551C176.031 10.245 176.435 10.174 176.862 10.142C177.323 10.1065 177.698 10.0621 177.985 10.0089C178.273 9.95561 178.488 9.88281 178.63 9.79048C178.772 9.69815 178.857 9.57386 178.886 9.41761V9.39631C178.918 9.18324 178.861 9.01989 178.715 8.90625C178.573 8.79261 178.374 8.7358 178.119 8.7358C177.842 8.7358 177.602 8.79616 177.4 8.9169C177.201 9.03764 177.064 9.22585 176.989 9.48153H174.283C174.397 8.98437 174.63 8.52628 174.981 8.10724C175.336 7.68466 175.807 7.3473 176.393 7.09517C176.982 6.83949 177.685 6.71165 178.502 6.71165C179.085 6.71165 179.596 6.78089 180.036 6.91939C180.477 7.05433 180.841 7.24432 181.128 7.48935C181.419 7.73082 181.624 8.01491 181.741 8.34162C181.862 8.66477 181.89 9.01634 181.826 9.39631L180.888 15H178.14L178.332 13.8494H178.268C178.055 14.1548 177.815 14.4016 177.549 14.5898C177.286 14.7781 176.998 14.9148 176.686 15C176.377 15.0852 176.045 15.1278 175.69 15.1278ZM176.968 13.2741C177.188 13.2741 177.405 13.228 177.618 13.1357C177.831 13.0433 178.014 12.9102 178.167 12.7362C178.319 12.5621 178.417 12.3509 178.46 12.1023L178.566 11.4205C178.488 11.4524 178.401 11.4826 178.305 11.511C178.213 11.5359 178.115 11.5607 178.012 11.5856C177.913 11.6104 177.806 11.6335 177.692 11.6548C177.582 11.6761 177.469 11.6974 177.352 11.7188C177.117 11.7543 176.92 11.8129 176.76 11.8945C176.6 11.9727 176.476 12.0703 176.387 12.1875C176.299 12.3011 176.244 12.429 176.222 12.571C176.19 12.7947 176.242 12.9688 176.377 13.093C176.515 13.2138 176.712 13.2741 176.968 13.2741Z" fill="black"/>
</svg>
