<svg width="164" height="21" viewBox="0 0 164 21" fill="none" xmlns="http://www.w3.org/2000/svg">
<path d="M8.67934 14.2971C8.15139 14.2997 7.63041 14.1602 7.15915 13.8902C6.68791 13.6201 6.27976 13.2272 5.96828 12.7436L3.79718 14.1582C3.8798 14.2662 3.9776 14.358 4.08667 14.4297L7.95008 16.9559C8.17588 17.0867 8.4258 17.1549 8.67934 17.1549C8.93289 17.1549 9.1828 17.0867 9.4086 16.9559L13.272 14.4297C13.3811 14.358 13.4789 14.2662 13.5615 14.1582L11.396 12.7183C11.0863 13.2074 10.6784 13.6058 10.2059 13.8803C9.73351 14.1549 9.21017 14.2978 8.67934 14.2971Z" fill="#414042"/>
<path d="M5.28007 10.4849C5.28205 9.58679 5.60215 8.72091 6.1792 8.05278C6.75624 7.38466 7.54978 6.96114 8.40809 6.86318V4.14084C8.27788 4.169 8.15259 4.21786 8.03667 4.28571L4.00913 6.70021C3.79022 6.85253 3.6082 7.05549 3.47733 7.29323C3.34643 7.53095 3.27024 7.79694 3.2547 8.07041V12.8994C3.25649 13.0387 3.27797 13.177 3.31852 13.3099L5.58186 11.9517C5.38395 11.49 5.28115 10.9904 5.28007 10.4849Z" fill="#414042"/>
<path d="M13.3892 6.69852L9.57367 4.28562C9.46388 4.2178 9.34518 4.16897 9.2218 4.14084V6.85534C9.74015 6.91979 10.2375 7.11683 10.6737 7.43071C11.11 7.74456 11.473 8.16642 11.7335 8.66232C11.9939 9.15821 12.1446 9.7143 12.1734 10.2858C12.2023 10.8573 12.1084 11.4282 11.8993 11.9526L14.0435 13.3099C14.0819 13.1771 14.1023 13.0389 14.104 12.8997V8.07387C14.0901 7.79954 14.0183 7.53252 13.8942 7.29383C13.7702 7.05514 13.5973 6.85135 13.3892 6.69852Z" fill="#414042"/>
<path d="M16.1685 4.28018L9.8697 0.307694C9.50031 0.105354 9.0927 0 8.6794 0C8.2661 0 7.85855 0.105354 7.48913 0.307694L1.19027 4.28018C0.844533 4.52615 0.556675 4.85745 0.349889 5.24731C0.143129 5.63717 0.0232716 6.07465 0 6.5244V14.4694C0.0228377 14.9201 0.142478 15.3586 0.349238 15.7496C0.555997 16.1405 0.844099 16.4729 1.19027 16.7198L7.48913 20.6924C7.85855 20.8947 8.2661 21 8.6794 21C9.0927 21 9.50031 20.8947 9.8697 20.6924L16.1685 16.7198C16.5147 16.4729 16.8028 16.1405 17.0096 15.7496C17.2163 15.3586 17.336 14.9201 17.3588 14.4694V6.5244C17.3355 6.07465 17.2157 5.63717 17.0089 5.24731C16.8021 4.85745 16.5143 4.52615 16.1685 4.28018ZM15.3598 13.5555C15.3413 13.9018 15.2487 14.2384 15.0895 14.5386C14.9303 14.8387 14.7088 15.0939 14.4429 15.2838L9.5906 18.3424C9.30717 18.4986 8.99408 18.5801 8.67655 18.5801C8.35902 18.5801 8.04591 18.4986 7.7625 18.3424L2.91593 15.2838C2.64998 15.0939 2.42852 14.8387 2.26931 14.5386C2.11007 14.2384 2.0175 13.9018 1.999 13.5555V7.4445C2.0175 7.09824 2.11007 6.76156 2.26931 6.46143C2.42852 6.16128 2.64998 5.90606 2.91593 5.71623L7.75678 2.65762C8.04022 2.50137 8.3533 2.41994 8.67086 2.41994C8.98839 2.41994 9.3015 2.50137 9.58493 2.65762L14.4372 5.71623C14.7042 5.90538 14.9268 6.16031 15.087 6.46049C15.2472 6.76064 15.3407 7.0977 15.3598 7.4445V13.5555Z" fill="#414042"/>
<path d="M6.23828 10.5C6.23828 10.9972 6.38144 11.4833 6.64966 11.8967C6.91788 12.3102 7.29915 12.6324 7.74522 12.8227C8.19126 13.013 8.68207 13.0628 9.15562 12.9658C9.62913 12.8688 10.0641 12.6293 10.4055 12.2777C10.7469 11.9261 10.9794 11.4782 11.0735 10.9905C11.1677 10.5028 11.1194 9.9973 10.9346 9.5379C10.7499 9.07851 10.437 8.68587 10.0356 8.40961C9.63415 8.13336 9.16215 7.98592 8.67936 7.98592C8.03196 7.98592 7.41106 8.25078 6.95327 8.72228C6.49546 9.19377 6.23828 9.83324 6.23828 10.5Z" fill="#414042"/>
<path d="M27.3589 13.9081H24.589L29.2793 4.4536H32.7879L34.339 13.9081H31.5691L30.6458 7.05729H30.572L27.3589 13.9081ZM27.4697 10.178H32.6771L32.3447 12.0985H27.1373L27.4697 10.178ZM39.386 4.4536L37.8164 13.9081H35.2496L36.8192 4.4536H39.386ZM45.759 4.4536L44.1894 13.9081H41.6227L43.1923 4.4536H45.759ZM46.9755 4.4536H50.1701L51.4811 9.80871H51.5919L54.6757 4.4536H57.8703L56.3007 13.9081H53.7894L54.6942 8.44223H54.6203L51.6289 13.8343H50.1147L48.9144 8.4053H48.8405L47.9172 13.9081H45.4059L46.9755 4.4536ZM59.9732 13.9081H57.2033L61.8936 4.4536H65.4021L66.9533 13.9081H64.1834L63.2601 7.05729H63.1862L59.9732 13.9081ZM60.0839 10.178H65.2913L64.9589 12.0985H59.7516L60.0839 10.178ZM74.612 7.57433C74.5997 7.41122 74.5658 7.26811 74.5104 7.145C74.455 7.01882 74.3766 6.91264 74.275 6.82647C74.1734 6.73721 74.0473 6.67104 73.8964 6.62796C73.7487 6.58179 73.5748 6.55871 73.3748 6.55871C72.9439 6.55871 72.5515 6.66181 72.1976 6.86801C71.8437 7.07422 71.5467 7.37121 71.3066 7.75899C71.0696 8.14678 70.9065 8.61458 70.8173 9.1624C70.7249 9.71638 70.7172 10.1903 70.7942 10.5843C70.8711 10.9782 71.0373 11.2798 71.2928 11.4891C71.5513 11.6984 71.9006 11.803 72.3407 11.803C72.7346 11.803 73.0747 11.7461 73.3609 11.6322C73.6472 11.5183 73.8764 11.3568 74.0488 11.1475C74.2211 10.9382 74.3289 10.692 74.3719 10.4089L74.8151 10.455H72.6546L72.9501 8.62689H77.1418L76.9295 9.93797C76.7879 10.7997 76.4832 11.5368 76.0154 12.1493C75.5507 12.7586 74.9721 13.2264 74.2796 13.5527C73.5871 13.8758 72.827 14.0374 71.9991 14.0374C71.0819 14.0374 70.3079 13.842 69.677 13.4511C69.0461 13.0602 68.5952 12.5032 68.3244 11.7799C68.0566 11.0567 68.0043 10.1965 68.1674 9.19934C68.2967 8.41761 68.5306 7.72514 68.8691 7.12192C69.2107 6.5187 69.6277 6.00935 70.1202 5.59387C70.6126 5.17531 71.1558 4.85985 71.7498 4.64749C72.3438 4.43205 72.9593 4.32433 73.5964 4.32433C74.1534 4.32433 74.6597 4.40435 75.1152 4.56439C75.5707 4.72135 75.96 4.94602 76.2832 5.2384C76.6063 5.5277 76.8479 5.87085 77.008 6.26787C77.1711 6.66489 77.2372 7.10038 77.2065 7.57433H74.612ZM77.4615 13.9081L79.0311 4.4536H85.845L85.4942 6.52178H81.247L80.9885 8.14678H84.8848L84.534 10.215H80.6377L80.3791 11.84H84.6078L84.257 13.9081H77.4615ZM88.1383 13.9081L89.7079 4.4536H96.3556L96.0048 6.52178H91.9238L91.6653 8.14678H95.34L94.9891 10.215H91.3144L90.705 13.9081H88.1383ZM97.0054 13.9081H94.2355L98.9258 4.4536H102.434L103.985 13.9081H101.216L100.292 7.05729H100.218L97.0054 13.9081ZM97.1162 10.178H102.324L101.991 12.0985H96.7838L97.1162 10.178ZM114.248 7.99905H111.681C111.7 7.78054 111.687 7.58357 111.644 7.40814C111.601 7.23272 111.527 7.08191 111.423 6.95573C111.318 6.82647 111.181 6.72798 111.012 6.66027C110.842 6.59256 110.641 6.55871 110.407 6.55871C109.958 6.55871 109.556 6.67104 109.202 6.89571C108.848 7.1173 108.554 7.43584 108.32 7.85132C108.086 8.26373 107.92 8.75615 107.822 9.3286C107.736 9.88257 107.733 10.3427 107.813 10.7089C107.896 11.0752 108.057 11.3491 108.297 11.5307C108.54 11.7122 108.856 11.803 109.244 11.803C109.502 11.803 109.739 11.7723 109.955 11.7107C110.173 11.6491 110.367 11.5614 110.536 11.4476C110.709 11.3306 110.855 11.1921 110.975 11.0321C111.098 10.869 111.192 10.6889 111.256 10.4919H113.842C113.743 10.892 113.568 11.3014 113.315 11.7199C113.063 12.1354 112.737 12.5186 112.337 12.8694C111.937 13.2172 111.466 13.4988 110.924 13.7143C110.382 13.9297 109.773 14.0374 109.096 14.0374C108.21 14.0374 107.445 13.8435 106.802 13.4557C106.161 13.0679 105.697 12.5017 105.407 11.7569C105.121 11.0121 105.064 10.1042 105.237 9.03314C105.409 7.99905 105.749 7.13269 106.257 6.43407C106.765 5.73544 107.382 5.20916 108.108 4.85523C108.834 4.5013 109.607 4.32433 110.425 4.32433C111.044 4.32433 111.598 4.40589 112.087 4.56901C112.58 4.73212 112.994 4.97064 113.329 5.28456C113.668 5.59541 113.917 5.97857 114.077 6.43407C114.237 6.88956 114.294 7.41122 114.248 7.99905ZM115.403 6.52178L115.754 4.4536H123.971L123.621 6.52178H120.777L119.558 13.9081H117.028L118.247 6.52178H115.403ZM132.84 9.34706C132.667 10.375 132.326 11.2367 131.815 11.9323C131.304 12.6278 130.684 13.1526 129.954 13.5065C129.225 13.8604 128.445 14.0374 127.614 14.0374C126.727 14.0374 125.958 13.8451 125.306 13.4603C124.653 13.0756 124.178 12.5124 123.879 11.7707C123.581 11.029 123.52 10.1226 123.699 9.05161C123.865 8.02367 124.204 7.15885 124.715 6.45715C125.226 5.75544 125.849 5.22455 126.584 4.86446C127.32 4.50438 128.106 4.32433 128.943 4.32433C129.824 4.32433 130.588 4.51823 131.238 4.90601C131.89 5.2938 132.364 5.86162 132.66 6.60949C132.958 7.35736 133.018 8.26988 132.84 9.34706ZM130.254 9.05161C130.341 8.50994 130.347 8.05445 130.273 7.68513C130.199 7.31273 130.044 7.03267 129.807 6.84493C129.57 6.65412 129.251 6.55871 128.851 6.55871C128.395 6.55871 127.992 6.66951 127.641 6.8911C127.291 7.11269 127 7.43122 126.769 7.84671C126.538 8.26219 126.377 8.76231 126.284 9.34706C126.186 9.89488 126.177 10.3504 126.257 10.7135C126.34 11.0767 126.503 11.3491 126.746 11.5307C126.992 11.7122 127.312 11.803 127.706 11.803C128.155 11.803 128.552 11.6953 128.897 11.4799C129.245 11.2644 129.533 10.9521 129.76 10.5427C129.991 10.1334 130.156 9.63636 130.254 9.05161ZM133.27 13.9081L134.84 4.4536H138.921C139.622 4.4536 140.215 4.58132 140.698 4.83676C141.181 5.09221 141.529 5.45999 141.741 5.9401C141.954 6.42022 142.004 6.99574 141.894 7.66666C141.783 8.34375 141.538 8.91465 141.16 9.37938C140.784 9.84103 140.306 10.1919 139.724 10.4319C139.145 10.6689 138.496 10.7874 137.776 10.7874H135.338L135.671 8.79309H137.591C137.893 8.79309 138.157 8.75615 138.385 8.68229C138.613 8.60535 138.798 8.48532 138.939 8.3222C139.081 8.15601 139.173 7.9375 139.216 7.66666C139.259 7.39583 139.238 7.17578 139.152 7.00651C139.065 6.83416 138.922 6.70798 138.722 6.62796C138.522 6.54486 138.274 6.50331 137.979 6.50331H137.074L135.837 13.9081H133.27ZM139.53 9.56865L141.174 13.9081H138.385L136.797 9.56865H139.53ZM142.818 4.4536H145.68L146.881 8.29451H146.973L149.447 4.4536H152.31L147.767 10.9351L147.268 13.9081H144.72L145.219 10.9351L142.818 4.4536Z" fill="black"/>
</svg>
