<svg width="18" height="21" viewBox="0 0 18 21" fill="none" xmlns="http://www.w3.org/2000/svg">
<path d="M8.67934 14.2971C8.15139 14.2997 7.63041 14.1602 7.15915 13.8902C6.68791 13.6201 6.27976 13.2272 5.96828 12.7436L3.79718 14.1582C3.8798 14.2662 3.9776 14.358 4.08667 14.4297L7.95008 16.9559C8.17588 17.0867 8.4258 17.1549 8.67934 17.1549C8.93289 17.1549 9.1828 17.0867 9.4086 16.9559L13.272 14.4297C13.3811 14.358 13.4789 14.2662 13.5615 14.1582L11.396 12.7183C11.0863 13.2074 10.6784 13.6058 10.2059 13.8803C9.73351 14.1549 9.21017 14.2978 8.67934 14.2971Z" fill="#414042"/>
<path d="M5.28007 10.4849C5.28205 9.58679 5.60215 8.72091 6.1792 8.05278C6.75624 7.38466 7.54978 6.96114 8.40809 6.86318V4.14084C8.27788 4.169 8.15259 4.21786 8.03667 4.28571L4.00913 6.70021C3.79022 6.85253 3.6082 7.05549 3.47733 7.29323C3.34643 7.53095 3.27024 7.79694 3.2547 8.07041V12.8994C3.25649 13.0387 3.27797 13.177 3.31852 13.3099L5.58186 11.9517C5.38395 11.49 5.28115 10.9904 5.28007 10.4849Z" fill="#414042"/>
<path d="M13.3892 6.69852L9.57367 4.28562C9.46388 4.2178 9.34518 4.16897 9.2218 4.14084V6.85534C9.74015 6.91979 10.2375 7.11683 10.6737 7.43071C11.11 7.74456 11.473 8.16642 11.7335 8.66232C11.9939 9.15821 12.1446 9.7143 12.1734 10.2858C12.2023 10.8573 12.1084 11.4282 11.8993 11.9526L14.0435 13.3099C14.0819 13.1771 14.1023 13.0389 14.104 12.8997V8.07387C14.0901 7.79954 14.0183 7.53252 13.8942 7.29383C13.7702 7.05514 13.5973 6.85135 13.3892 6.69852Z" fill="#414042"/>
<path d="M16.1685 4.28018L9.8697 0.307694C9.50031 0.105354 9.0927 0 8.6794 0C8.2661 0 7.85855 0.105354 7.48913 0.307694L1.19027 4.28018C0.844533 4.52615 0.556675 4.85745 0.349889 5.24731C0.143129 5.63717 0.0232716 6.07465 0 6.5244V14.4694C0.0228377 14.9201 0.142478 15.3586 0.349238 15.7496C0.555997 16.1405 0.844099 16.4729 1.19027 16.7198L7.48913 20.6924C7.85855 20.8947 8.2661 21 8.6794 21C9.0927 21 9.50031 20.8947 9.8697 20.6924L16.1685 16.7198C16.5147 16.4729 16.8028 16.1405 17.0096 15.7496C17.2163 15.3586 17.336 14.9201 17.3588 14.4694V6.5244C17.3355 6.07465 17.2157 5.63717 17.0089 5.24731C16.8021 4.85745 16.5143 4.52615 16.1685 4.28018ZM15.3598 13.5555C15.3413 13.9018 15.2487 14.2384 15.0895 14.5386C14.9303 14.8387 14.7088 15.0939 14.4429 15.2838L9.5906 18.3424C9.30717 18.4986 8.99408 18.5801 8.67655 18.5801C8.35902 18.5801 8.04591 18.4986 7.7625 18.3424L2.91593 15.2838C2.64998 15.0939 2.42852 14.8387 2.26931 14.5386C2.11007 14.2384 2.0175 13.9018 1.999 13.5555V7.4445C2.0175 7.09824 2.11007 6.76156 2.26931 6.46143C2.42852 6.16128 2.64998 5.90606 2.91593 5.71623L7.75678 2.65762C8.04022 2.50137 8.3533 2.41994 8.67086 2.41994C8.98839 2.41994 9.3015 2.50137 9.58493 2.65762L14.4372 5.71623C14.7042 5.90538 14.9268 6.16031 15.087 6.46049C15.2472 6.76064 15.3407 7.0977 15.3598 7.4445V13.5555Z" fill="#414042"/>
<path d="M6.23828 10.5C6.23828 10.9972 6.38144 11.4833 6.64966 11.8967C6.91788 12.3102 7.29915 12.6324 7.74522 12.8227C8.19126 13.013 8.68207 13.0628 9.15562 12.9658C9.62913 12.8688 10.0641 12.6293 10.4055 12.2777C10.7469 11.9261 10.9794 11.4782 11.0735 10.9905C11.1677 10.5028 11.1194 9.9973 10.9346 9.5379C10.7499 9.07851 10.437 8.68587 10.0356 8.40961C9.63415 8.13336 9.16215 7.98592 8.67936 7.98592C8.03196 7.98592 7.41106 8.25078 6.95327 8.72228C6.49546 9.19377 6.23828 9.83324 6.23828 10.5Z" fill="#414042"/>
</svg>
